<?xml version="1.0" encoding="utf-8"?>
<!-- Generator: Adobe Illustrator 22.1.0, SVG Export Plug-In . SVG Version: 6.00 Build 0)  -->
<svg version="1.1" xmlns="http://www.w3.org/2000/svg" xmlns:xlink="http://www.w3.org/1999/xlink" x="0px" y="0px"
	 viewBox="0 0 800 500" style="enable-background:new 0 0 800 500;" xml:space="preserve">
<style type="text/css">
	.st0{fill:url(#SVGID_1_);}
	.st1{opacity:0.1;clip-path:url(#SVGID_3_);fill:#FFFFFF;}
	.st2{clip-path:url(#SVGID_3_);fill:#FFFFFF;}
	.st3{opacity:0.54;clip-path:url(#SVGID_3_);fill:#FFFFFF;}
</style>
<g id="Layer_1">
	<linearGradient id="SVGID_1_" gradientUnits="userSpaceOnUse" x1="400" y1="733.0663" x2="400" y2="-354.4631">
		<stop  offset="0.2374" style="stop-color:#7DCCED"/>
		<stop  offset="0.2812" style="stop-color:#77CAEC"/>
		<stop  offset="0.7669" style="stop-color:#3EB3E4"/>
		<stop  offset="1" style="stop-color:#27AAE1"/>
	</linearGradient>
	<rect class="st0" width="800" height="500"/>
</g>
<g id="Layer_2">
	<g>
		<defs>
			<rect id="SVGID_2_" width="800" height="500"/>
		</defs>
		<clipPath id="SVGID_3_">
			<use xlink:href="#SVGID_2_"  style="overflow:visible;"/>
		</clipPath>
		<path class="st1" d="M797.1,105.5c-5.7,0-11,1.4-15.7,3.9c-10.6-8.1-23.9-13-38.3-13c-27.7,0-51.3,18-59.6,42.9
			c-11.5,1.4-21.2,8.6-26,18.6c-3.5-0.7-7.1-1.1-10.8-1.1c-29,0-52.6,23.5-52.6,52.6c0,1.9,0.1,3.8,0.3,5.7
			c-5.6,3.8-10,9.2-12.5,15.6c-5.8-4.8-13.2-7.7-21.4-7.7c-14.7,0-27.2,9.5-31.7,22.6c-7.9,3.3-14.2,9.6-17.6,17.4
			c-2.2-0.5-4.5-0.8-6.9-0.8c-17.8,0-32.2,14.4-32.2,32.2c0,1,0,1.9,0.1,2.8c-4-1.8-8.5-2.8-13.2-2.8c-12.8,0-23.8,7.4-29,18.2
			c-1.8-0.2-3.7-0.3-5.6-0.3c-6.1,0-12,1-17.5,2.9c-5.5-1.9-11.3-2.9-17.5-2.9c-1.9,0-3.8,0.1-5.6,0.3c-5.2-10.8-16.3-18.2-29-18.2
			c-4.7,0-9.2,1-13.2,2.8c0.1-0.9,0.1-1.9,0.1-2.8c0-17.8-14.4-32.2-32.2-32.2c-2.4,0-4.7,0.3-6.9,0.8c-3.4-7.8-9.7-14.1-17.6-17.4
			c-4.5-13.2-17-22.6-31.7-22.6c-8.1,0-15.6,2.9-21.4,7.7c-2.5-6.4-6.9-11.8-12.5-15.6c0.2-1.9,0.3-3.8,0.3-5.7
			c0-29-23.5-52.6-52.6-52.6c-3.7,0-7.3,0.4-10.8,1.1c-4.9-10-14.6-17.2-26-18.6c-8.4-24.9-31.9-42.9-59.6-42.9
			c-14.4,0-27.7,4.9-38.3,13c-4.7-2.5-10-3.9-15.7-3.9c-18.5,0-33.6,15-33.6,33.6v327h294.1v28.3l63.1,2c4.5,2.4,9.6,3.7,15,3.7
			c0.6,0,1.3,0,1.9-0.1l49.7-1.6l49.7,1.6c0.6,0,1.2,0.1,1.9,0.1c5.4,0,10.5-1.3,15-3.7l63.1-2v-28.3h294.1v-327
			C830.7,120.6,815.6,105.5,797.1,105.5z"/>
		<path class="st2" d="M784.6,285.4c-24.2,0-45,13.7-54.8,33.5c-2.8-1.3-6-2.1-9.3-2.1c-8.7,0-16.2,5-19.5,12.2
			c-15,0.4-28.6,6.1-38.9,15.2c-11-7.6-24.4-12.1-38.9-12.1c-36.9,0-66.8,29-66.8,64.8c0,4.4,0.5,8.7,1.3,12.9c-0.4,0-0.8,0-1.2,0
			c-17.2,0-31.2,13.5-31.2,30.2c0,1.3,0.1,2.7,0.3,4c-4.2-0.6-8.6-0.9-13-0.9c-14.7,0-28.6,3.5-40.8,9.8
			c-5.1-6.9-13.4-11.5-22.7-11.5c-10.2,0-19.2,5.4-24.1,13.6c-5.8-1.9-12.1-2.9-18.5-2.9c-8.3,0-16.1,1.7-23.3,4.6
			c-17.2-19.6-42.5-32-70.6-32c-4.8,0-9.4,0.4-14,1c0.2-1.4,0.3-2.9,0.3-4.4c0-18.5-15-33.5-33.5-33.5c-0.4,0-0.9,0-1.3,0
			c0.9-4.6,1.4-9.4,1.4-14.3c0-39.7-32.2-71.8-71.8-71.8c-15.6,0-30,5-41.8,13.5c-11.1-10.1-25.8-16.4-41.9-16.8
			c-3.6-8-11.7-13.5-21-13.5c-3.6,0-7,0.8-10,2.3C68.4,265.2,46,250,20,250c-36,0-65.2,29.2-65.2,65.2v297.4h285.9h71.8h200.1h100.1
			h232.6V344.2C845.2,311.7,818.1,285.4,784.6,285.4z"/>
		<path class="st3" d="M773,157.8c-25.2,0-46.9,15.2-56.3,37c-7.5-3.3-15.9-5.2-24.7-5.2c-33.9,0-61.4,27.5-61.4,61.4
			c-16.5,0-30.6,9.7-37.2,23.7c-6.8-4.9-15.1-7.8-24.1-7.8c-22.7,0-41.1,18.4-41.1,41.1c0,3.7,0.5,7.3,1.4,10.7
			c-2.7-0.3-5.4-0.5-8.1-0.5c-33.7,0-61.7,24.5-67.1,56.7c-4.8-1.5-9.8-2.3-15.1-2.3c-19.2,0-35.8,10.5-44.6,26.1
			c-8.8-15.6-25.5-26.1-44.6-26.1c-3.2,0-6.3,0.3-9.3,0.9c0.5-2.7,0.8-5.4,0.8-8.2c0-13.2-5.7-25.1-14.8-33.4
			c3.7-6.5,5.8-14.1,5.8-22.1c0-24.9-20.1-45-45-45c-17.8,0-33.2,10.4-40.5,25.4c-7.3-15-22.7-25.4-40.5-25.4
			c-2.4,0-4.8,0.2-7.2,0.6c-5.5-8.5-13.7-15-23.5-18.3c-6.9-16-22.8-27.3-41.4-27.3c-3.6,0-7.2,0.4-10.5,1.3c0-0.6,0-1.3,0-1.9
			c0-24.9-20.1-45-45-45c-16.8,0-31.4,9.2-39.1,22.8c-7.7-6.3-17.6-10.1-28.4-10.1c-24.9,0-45,20.1-45,45v178.4h334.2
			c-1.2,4.3-1.8,8.9-1.8,13.6c0,28.3,22.9,51.2,51.2,51.2h484.2V219.2C834.4,185.3,806.9,157.8,773,157.8z"/>
	</g>
</g>
</svg>
